<mxfile host="app.diagrams.net" modified="2024-03-10T14:56:16.571Z" agent="Mozilla/5.0 (Windows NT 10.0; Win64; x64) AppleWebKit/537.36 (KHTML, like Gecko) Chrome/122.0.0.0 Safari/537.36" version="24.0.4" etag="J_jj5v9GahdricUyNAJd" type="github">
  <diagram name="Page-1" id="ZJ4nyJmSBI3uHh0tWRiC">
    <mxGraphModel>
      <root>
        <mxCell id="0" />
        <mxCell id="1" parent="0" />
      </root>
    </mxGraphModel>
  </diagram>
</mxfile>
